<svg width="36" height="36" viewBox="0 0 36 36" fill="none" xmlns="http://www.w3.org/2000/svg">
<path d="M28.9285 8.99999C28.9282 8.7883 28.8681 8.58098 28.7553 8.40188C28.6425 8.22277 28.4814 8.07914 28.2905 7.98749C28.0997 7.89584 27.8869 7.85989 27.6766 7.88377C27.4662 7.90765 27.2669 7.99039 27.1015 8.12249L21.7847 12.375H16.5535C16.2551 12.375 15.969 12.4935 15.758 12.7045C15.547 12.9155 15.4285 13.2016 15.4285 13.5V22.5C15.4285 22.7984 15.547 23.0845 15.758 23.2955C15.969 23.5065 16.2551 23.625 16.5535 23.625H21.7847L27.1015 27.8775C27.2669 28.0096 27.4662 28.0923 27.6766 28.1162C27.8869 28.1401 28.0997 28.1041 28.2905 28.0125C28.4814 27.9208 28.6425 27.7772 28.7553 27.5981C28.8681 27.419 28.9282 27.2117 28.9285 27V8.99999ZM22.8805 14.3775L26.6785 11.34V24.66L22.8805 21.6225C22.6813 21.4627 22.4338 21.3754 22.1785 21.375H17.6785V14.625H22.1785C22.4338 14.6245 22.6813 14.5373 22.8805 14.3775ZM35.7347 18C35.7365 19.3299 35.4754 20.647 34.9664 21.8757C34.4575 23.1043 33.7108 24.2203 32.7692 25.1595L31.1785 23.5687C31.9108 22.8382 32.4916 21.9702 32.8873 21.0145C33.2831 20.0588 33.4861 19.0344 33.4847 18C33.486 16.9656 33.283 15.9412 32.8872 14.9855C32.4914 14.0299 31.9107 13.1618 31.1785 12.4312L32.7692 10.8405C33.7108 11.7797 34.4575 12.8956 34.9664 14.1243C35.4754 15.353 35.7365 16.6701 35.7347 18Z" fill="white" fill-opacity="0.6"/>
</svg>
