<svg width="36" height="36" viewBox="0 0 36 36" fill="none" xmlns="http://www.w3.org/2000/svg">
<path d="M12.8633 7.98754C13.0539 8.07936 13.2147 8.22306 13.3273 8.40216C13.44 8.58125 13.4998 8.78847 13.5 9.00004V27C13.4997 27.2117 13.4397 27.419 13.3268 27.5981C13.214 27.7773 13.0529 27.9209 12.8621 28.0125C12.6712 28.1042 12.4584 28.1401 12.2481 28.1163C12.0378 28.0924 11.8384 28.0096 11.673 27.8775L6.35625 23.625H1.125C0.826631 23.625 0.540483 23.5065 0.329505 23.2955C0.118526 23.0846 0 22.7984 0 22.5V13.5C0 13.2017 0.118526 12.9155 0.329505 12.7045C0.540483 12.4936 0.826631 12.375 1.125 12.375H6.35625L11.673 8.12254C11.8385 7.99021 12.0381 7.90733 12.2487 7.88345C12.4592 7.85957 12.6723 7.89565 12.8633 7.98754ZM11.25 11.34L7.452 14.3775C7.25286 14.5373 7.00531 14.6246 6.75 14.625H2.25V21.375H6.75C7.00531 21.3755 7.25286 21.4628 7.452 21.6225L11.25 24.66V11.34ZM28.9215 12.7035C29.0263 12.808 29.1094 12.9322 29.1661 13.0689C29.2228 13.2055 29.252 13.3521 29.252 13.5C29.252 13.648 29.2228 13.7945 29.1661 13.9312C29.1094 14.0679 29.0263 14.192 28.9215 14.2965L25.2157 18L28.9215 21.7035C29.1327 21.9148 29.2514 22.2013 29.2514 22.5C29.2514 22.7988 29.1327 23.0853 28.9215 23.2965C28.7103 23.5078 28.4237 23.6265 28.125 23.6265C27.8263 23.6265 27.5397 23.5078 27.3285 23.2965L23.625 19.5908L19.9215 23.2965C19.7103 23.5078 19.4237 23.6265 19.125 23.6265C18.8263 23.6265 18.5397 23.5078 18.3285 23.2965C18.1173 23.0853 17.9986 22.7988 17.9986 22.5C17.9986 22.2013 18.1173 21.9148 18.3285 21.7035L22.0343 18L18.3285 14.2965C18.2239 14.1919 18.1409 14.0678 18.0843 13.9311C18.0277 13.7944 17.9986 13.648 17.9986 13.5C17.9986 13.3521 18.0277 13.2056 18.0843 13.069C18.1409 12.9323 18.2239 12.8081 18.3285 12.7035C18.5397 12.4923 18.8263 12.3736 19.125 12.3736C19.2729 12.3736 19.4194 12.4028 19.5561 12.4594C19.6927 12.516 19.8169 12.5989 19.9215 12.7035L23.625 16.4093L27.3285 12.7035C27.433 12.5988 27.5571 12.5157 27.6938 12.4589C27.8305 12.4022 27.977 12.373 28.125 12.373C28.273 12.373 28.4195 12.4022 28.5562 12.4589C28.6929 12.5157 28.817 12.5988 28.9215 12.7035Z" fill="white" fill-opacity="0.6"/>
</svg>
